<svg xmlns="http://www.w3.org/2000/svg" viewBox="0 0 800 600" width="800" height="600">
  <!-- Background -->
  <rect width="100%" height="100%" fill="#121212"/>

  <!-- Stars -->
  <g id="stars">
      <!-- Small stars with varying colors -->
      <circle cx="30" cy="50" r="1.2" fill="white"/>
      <circle cx="100" cy="120" r="1.5" fill="#ADD8E6"/> <!-- Light blue -->
      <circle cx="200" cy="80" r="1" fill="#FFB6C1"/> <!-- Light pink -->
      <circle cx="300" cy="150" r="1.3" fill="white"/>
      <circle cx="400" cy="100" r="0.8" fill="#FFE4E1"/> <!-- Misty rose -->
      <circle cx="500" cy="200" r="1.1" fill="#B0E0E6"/> <!-- Powder blue -->
      <circle cx="600" cy="50" r="1.4" fill="#FFDAB9"/> <!-- Peach puff -->
      <circle cx="700" cy="180" r="1.2" fill="#FFFACD"/> <!-- Lemon chiffon -->
      <circle cx="750" cy="100" r="0.9" fill="white"/>
      <circle cx="550" cy="300" r="1.3" fill="#E0FFFF"/> <!-- Light cyan -->
      <circle cx="250" cy="250" r="0.7" fill="#FAFAD2"/> <!-- Light goldenrod yellow -->
      <circle cx="100" cy="400" r="1.1" fill="white"/>
      <circle cx="450" cy="450" r="1.4" fill="#F0FFF0"/> <!-- Honeydew -->
      <circle cx="600" cy="350" r="0.8" fill="#FFF5EE"/> <!-- Seashell -->
      <circle cx="700" cy="500" r="1.2" fill="#F5F5DC"/> <!-- Beige -->
      <circle cx="50" cy="500" r="0.9" fill="#FFF8DC"/> <!-- Cornsilk -->
      <circle cx="250" cy="550" r="1.1" fill="white"/>
      <circle cx="350" cy="480" r="0.7" fill="#F5F5F5"/> <!-- White smoke -->
      <circle cx="500" cy="550" r="1.2" fill="#FFFAF0"/> <!-- Floral white -->
      <circle cx="650" cy="450" r="0.8" fill="#FFF0F5"/> <!-- Lavender blush -->
      <circle cx="750" cy="300" r="1.3" fill="#FFFACD"/> <!-- Lemon chiffon -->
      <circle cx="70" cy="350" r="0.9" fill="#FDF5E6"/> <!-- Old lace -->
      <circle cx="180" cy="300" r="1.1" fill="white"/>
      <circle cx="300" cy="400" r="0.7" fill="#FFFAFA"/> <!-- Snow -->
      <circle cx="420" cy="370" r="1.2" fill="#F0FFFF"/> <!-- Azure -->
      <circle cx="550" cy="420" r="0.8" fill="#F5F5F5"/> <!-- White smoke -->
      <circle cx="670" cy="380" r="1.4" fill="#FFF0F5"/> <!-- Lavender blush -->
      <circle cx="780" cy="420" r="1.1" fill="#FFF8DC"/> <!-- Cornsilk -->
      <circle cx="150" cy="100" r="0.8" fill="#FFFACD"/> <!-- Lemon chiffon -->
      <circle cx="280" cy="170" r="1.3" fill="#E0FFFF"/> <!-- Light cyan -->
      <circle cx="370" cy="130" r="0.9" fill="white"/>
      <circle cx="520" cy="150" r="1.2" fill="#FFE4E1"/> <!-- Misty rose -->
      <circle cx="670" cy="120" r="0.7" fill="#F0FFF0"/> <!-- Honeydew -->
      <circle cx="780" cy="180" r="1.1" fill="#FFB6C1"/> <!-- Light pink -->
      <circle cx="70" cy="220" r="0.8" fill="white"/>
      <circle cx="180" cy="230" r="1.3" fill="#F5F5F5"/> <!-- White smoke -->
      <circle cx="320" cy="250" r="0.9" fill="#FAFAD2"/> <!-- Light goldenrod yellow -->
      <circle cx="430" cy="220" r="1.2" fill="white"/>
      <circle cx="580" cy="230" r="0.7" fill="#ADD8E6"/> <!-- Light blue -->
      <circle cx="700" cy="270" r="1.1" fill="#FFE4E1"/> <!-- Misty rose -->
      <circle cx="20" cy="300" r="0.8" fill="#FDF5E6"/> <!-- Old lace -->
      <circle cx="120" cy="330" r="1.3" fill="#F5F5DC"/> <!-- Beige -->
      <circle cx="240" cy="310" r="0.9" fill="#F0FFFF"/> <!-- Azure -->
      <circle cx="340" cy="380" r="1.2" fill="#FFDAB9"/> <!-- Peach puff -->
      <circle cx="480" cy="330" r="0.7" fill="#F5F5F5"/> <!-- White smoke -->
      <circle cx="600" cy="300" r="1.1" fill="#FFFAFA"/> <!-- Snow -->
      <circle cx="720" cy="350" r="0.8" fill="#FFF8DC"/> <!-- Cornsilk -->
      <circle cx="50" cy="400" r="1.3" fill="#F0FFFF"/> <!-- Azure -->
      <circle cx="180" cy="450" r="0.9" fill="#FFFAF0"/> <!-- Floral white -->
      <circle cx="300" cy="470" r="1.2" fill="#F0FFF0"/> <!-- Honeydew -->
      <circle cx="420" cy="420" r="0.7" fill="#FFF5EE"/> <!-- Seashell -->
      <circle cx="550" cy="470" r="1.1" fill="#F5F5DC"/> <!-- Beige -->
      <circle cx="670" cy="430" r="0.8" fill="#FFFACD"/> <!-- Lemon chiffon -->
      <circle cx="780" cy="480" r="1.3" fill="#FDF5E6"/> <!-- Old lace -->

      <!-- Big stars -->
      <circle cx="200" cy="100" r="2" fill="#FFE4E1"/> <!-- Misty rose -->
      <circle cx="500" cy="400" r="2" fill="#ADD8E6"/> <!-- Light blue -->
  </g>
</svg>
