<svg xmlns="http://www.w3.org/2000/svg" viewBox="0 0 800 600" width="800" height="600">
    <!-- Background -->
    <rect width="100%" height="100%" fill="#121212"/>
  
    <!-- Stars -->
    <g id="stars">
      <!-- Generate small stars -->
      <circle cx="30" cy="50" r="1.2" fill="white"/>
      <circle cx="100" cy="120" r="1.5" fill="white"/>
      <circle cx="200" cy="80" r="1" fill="white"/>
      <circle cx="300" cy="150" r="1.3" fill="white"/>
      <circle cx="400" cy="100" r="0.8" fill="white"/>
      <circle cx="500" cy="200" r="1.1" fill="white"/>
      <circle cx="600" cy="50" r="1.4" fill="white"/>
      <circle cx="700" cy="180" r="1.2" fill="white"/>
      <circle cx="750" cy="100" r="0.9" fill="white"/>
      <circle cx="550" cy="300" r="1.3" fill="white"/>
      <circle cx="250" cy="250" r="0.7" fill="white"/>
      <circle cx="100" cy="400" r="1.1" fill="white"/>
      <circle cx="450" cy="450" r="1.4" fill="white"/>
      <circle cx="600" cy="350" r="0.8" fill="white"/>
      <circle cx="700" cy="500" r="1.2" fill="white"/>
      <circle cx="50" cy="500" r="0.9" fill="white"/>
      <circle cx="250" cy="550" r="1.1" fill="white"/>
      <circle cx="350" cy="480" r="0.7" fill="white"/>
      <circle cx="500" cy="550" r="1.2" fill="white"/>
      <circle cx="650" cy="450" r="0.8" fill="white"/>
      <circle cx="750" cy="300" r="1.3" fill="white"/>
      <circle cx="70" cy="350" r="0.9" fill="white"/>
      <circle cx="180" cy="300" r="1.1" fill="white"/>
      <circle cx="300" cy="400" r="0.7" fill="white"/>
      <circle cx="420" cy="370" r="1.2" fill="white"/>
      <circle cx="550" cy="420" r="0.8" fill="white"/>
      <circle cx="670" cy="380" r="1.4" fill="white"/>
      <circle cx="780" cy="420" r="1.1" fill="white"/>
      <circle cx="150" cy="100" r="0.8" fill="white"/>
      <circle cx="280" cy="170" r="1.3" fill="white"/>
      <circle cx="370" cy="130" r="0.9" fill="white"/>
      <circle cx="520" cy="150" r="1.2" fill="white"/>
      <circle cx="670" cy="120" r="0.7" fill="white"/>
      <circle cx="780" cy="180" r="1.1" fill="white"/>
      <circle cx="70" cy="220" r="0.8" fill="white"/>
      <circle cx="180" cy="230" r="1.3" fill="white"/>
      <circle cx="320" cy="250" r="0.9" fill="white"/>
      <circle cx="430" cy="220" r="1.2" fill="white"/>
      <circle cx="580" cy="230" r="0.7" fill="white"/>
      <circle cx="700" cy="270" r="1.1" fill="white"/>
      <circle cx="20" cy="300" r="0.8" fill="white"/>
      <circle cx="120" cy="330" r="1.3" fill="white"/>
      <circle cx="240" cy="310" r="0.9" fill="white"/>
      <circle cx="340" cy="380" r="1.2" fill="white"/>
      <circle cx="480" cy="330" r="0.7" fill="white"/>
      <circle cx="600" cy="300" r="1.1" fill="white"/>
      <circle cx="720" cy="350" r="0.8" fill="white"/>
      <circle cx="50" cy="400" r="1.3" fill="white"/>
      <circle cx="180" cy="450" r="0.9" fill="white"/>
      <circle cx="300" cy="470" r="1.2" fill="white"/>
      <circle cx="420" cy="420" r="0.7" fill="white"/>
      <circle cx="550" cy="470" r="1.1" fill="white"/>
      <circle cx="670" cy="430" r="0.8" fill="white"/>
      <circle cx="780" cy="480" r="1.3" fill="white"/>
      
      <!-- Generate a couple of big stars -->
      <circle cx="200" cy="200" r="2" fill="white"/>
      <circle cx="500" cy="400" r="2" fill="white"/>
    </g>
  </svg>
  